<?xml version="1.0" encoding="UTF-8"?>
<svg width="598px" height="607px" viewBox="0 0 598 607" version="1.1" xmlns="http://www.w3.org/2000/svg" xmlns:xlink="http://www.w3.org/1999/xlink">
    <title>Frame</title>
    <defs>
        <path d="M0,0 L598,0 L598,607 L0,607 L0,0 Z" id="path-1"></path>
    </defs>
    <g id="Frame" stroke="none" fill="none" xlink:href="#path-1" fill-rule="evenodd" stroke-width="1">
        <g id="Group" transform="translate(-212, -187)" fill="#000000">
            <polygon id="Path" points="399 607 400 615 698 614 698 607"></polygon>
            <polygon id="Path" points="384 543 386 549 392 549 394 546 393 543"></polygon>
            <polygon id="Path" points="599 556 581 541 562 549 560 552 569 566 568 577 563 583 544 584 539 590 539 598 582 598 590 575 599 561"></polygon>
            <polygon id="Path" points="404 509 404 516 402 519 404 522 403 534 414 533 448 544 453 544 455 542 456 533 447 526 444 517 437 511 424 509"></polygon>
            <polygon id="Path" points="377 509 375 514 378 517 376 520 377 530 379 531 378 537 380 539 394 539 396 534 392 531 396 529 398 521 387 517 396 516 398 514 398 510 395 508"></polygon>
            <polygon id="Path" points="364 496 364 500 366 502 412 502 415 498 413 495 367 494"></polygon>
            <polygon id="Path" points="459 474 462 481 477 482 481 479 481 473 473 469 466 469"></polygon>
            <polygon id="Path" points="647 454 628 464 629 468 647 462"></polygon>
            <polygon id="Path" points="724 442 716 441 711 446 703 447 688 439 676 438 668 441 662 447 658 456 658 469 660 475 665 481 682 490 690 498 692 504 690 514 685 519 679 521 666 517 639 491 620 480 602 476 559 478 543 473 543 487 540 494 529 484 525 483 527 489 526 508 518 526 514 530 507 517 502 528 491 542 486 530 471 517 464 547 454 573 444 583 424 584 419 590 419 598 462 598 467 590 496 563 505 550 529 549 554 543 575 532 589 520 594 513 598 515 588 531 599 545 617 556 645 564 652 568 655 572 655 582 636 584 631 589 630 598 674 598 678 560 656 543 648 529 645 513 647 512 660 523 672 529 685 529 692 526 700 514 700 499 697 493 690 486 676 479 669 472 667 466 668 458 674 451 681 449 690 452 700 459 710 460 716 458 722 452"></polygon>
            <polygon id="Path" points="529 434 533 442 539 448 544 461 551 466 558 468 602 466 618 469 616 462 606 445 594 434 583 428 567 424 554 424 539 428"></polygon>
            <path d="M439,416 L436,425 L439,438 L433,452 L433,486 L443,476 L446,470 L443,453 L447,445 L449,446 L448,453 L451,462 L456,468 L460,467 L467,461 L466,457 L461,453 L462,448 L467,450 L480,449 L481,451 L473,458 L472,461 L481,468 L488,468 L496,455 L499,443 L501,445 L502,458 L497,468 L498,477 L505,485 L504,487 L492,476 L489,476 L487,484 L483,489 L462,490 L461,494 L453,504 L452,499 L457,488 L452,483 L451,475 L449,474 L439,496 L440,504 L444,502 L447,504 L448,509 L460,525 L469,503 L489,522 L492,530 L497,522 L500,512 L500,494 L508,500 L515,516 L519,508 L519,486 L507,469 L515,469 L530,477 L526,467 L514,456 L512,452 L513,451 L525,458 L535,472 L534,459 L532,455 L519,444 L522,441 L512,432 L512,422 L510,418 L503,419 L496,423 L484,417 L472,421 L462,416 L452,421 L445,417 L439,416 Z M479,439 L482,433 L490,434 L492,436 L486,441 L479,439 Z M452,434 L455,431 L460,431 L464,434 L464,438 L457,439 L452,434 Z M507,422 L508,432 L505,436 L501,437 L499,428 L507,422 Z M440,419 L450,426 L446,436 L443,436 L440,432 L440,419 Z" id="Shape"></path>
            <polygon id="Path" points="633 397 609 430 608 433 611 436 614 435 638 401"></polygon>
            <polygon id="Path" points="680 400 674 396 620 446 621 450 623 452"></polygon>
            <polygon id="Path" points="447 405 454 411 465 409 471 412 486 407 489 409 490 413 494 414 506 407 498 406 497 404 499 400 492 401 490 395 484 402 477 391 465 402 461 397 457 404"></polygon>
            <polygon id="Path" points="589 373 584 373 577 414 577 416 583 417 589 386"></polygon>
            <polygon id="Path" points="539 371 534 373 543 414 545 416 549 415 549 410"></polygon>
            <polygon id="Path" points="468 361 453 365 435 375 425 383 410 400 395 426 387 449 383 470 383 485 396 485 398 462 404 437 413 415 424 398 446 375"></polygon>
            <polygon id="Path" points="622 353 595 416 593 422 598 425 628 355"></polygon>
            <polygon id="Path" points="503 350 499 352 498 355 527 418 531 421 534 419"></polygon>
            <polygon id="Path" points="558 337 560 414 566 414 564 337"></polygon>
            <path d="M510,227 L486,232 L460,241 L440,251 L420,264 L388,292 L359,330 L337,374 L328,402 L322,430 L319,455 L319,504 L321,524 L331,568 L339,591 L354,623 L380,662 L416,699 L452,724 L469,733 L495,743 L540,752 L572,752 L590,750 L617,743 L637,735 L658,724 L677,711 L694,697 L711,679 L738,640 L756,600 L769,549 L773,507 L773,487 L769,449 L758,402 L740,359 L717,321 L700,300 L682,282 L662,266 L640,252 L618,241 L595,233 L560,226 L510,227 Z M516,242 L555,241 L576,244 L604,252 L645,273 L673,295 L693,316 L707,334 L718,351 L733,380 L746,416 L756,468 L757,519 L751,561 L735,610 L723,634 L710,654 L684,684 L669,697 L647,712 L608,729 L572,736 L531,735 L491,725 L459,710 L422,683 L391,650 L366,612 L356,591 L345,560 L335,511 L334,461 L341,414 L347,393 L358,365 L378,330 L391,313 L409,294 L444,267 L473,253 L491,247 L516,242 Z" id="Shape"></path>
            <path d="M401,202 L379,210 L347,225 L321,242 L305,255 L283,277 L260,307 L242,339 L234,358 L224,388 L218,414 L213,454 L212,490 L215,525 L221,559 L229,588 L241,620 L255,648 L272,675 L292,700 L313,721 L350,749 L380,765 L425,781 L463,789 L536,794 L564,793 L597,789 L623,783 L654,772 L678,760 L705,742 L741,708 L752,694 L774,659 L788,629 L799,597 L807,562 L810,536 L810,468 L806,439 L797,400 L779,352 L765,325 L749,300 L728,274 L710,256 L671,227 L629,206 L586,193 L563,189 L535,187 L489,188 L454,191 L424,196 L401,202 Z M388,752 L416,751 L440,766 L464,777 L459,778 L420,767 L388,752 Z M352,729 L386,728 L402,741 L370,742 L352,729 Z M323,706 L328,704 L362,704 L375,717 L337,719 L323,706 Z M352,693 L312,695 L301,682 L341,679 L352,693 Z M282,656 L298,654 L326,654 L335,668 L323,670 L291,670 L282,656 Z M267,630 L312,628 L320,642 L275,644 L267,630 Z M307,617 L261,618 L254,604 L299,602 L302,604 L307,617 Z M244,578 L249,576 L292,576 L294,578 L297,590 L282,592 L254,592 L248,589 L244,578 Z M237,551 L285,550 L287,552 L290,564 L241,565 L237,551 Z M232,525 L281,524 L284,538 L236,539 L234,537 L232,525 Z M229,499 L234,497 L278,497 L280,500 L280,512 L232,513 L230,511 L229,499 Z M229,472 L278,471 L279,485 L230,486 L229,472 Z M230,446 L279,445 L280,458 L278,460 L230,460 L230,446 Z M232,433 L235,419 L284,420 L281,434 L232,433 Z M237,407 L241,393 L286,393 L289,395 L287,406 L285,408 L237,407 Z M243,381 L249,368 L295,368 L297,370 L292,383 L245,383 L243,381 Z M253,357 L259,344 L306,345 L300,358 L253,357 Z M265,332 L273,319 L319,320 L311,333 L265,332 Z M280,308 L290,295 L334,296 L325,309 L280,308 Z M299,284 L311,271 L352,272 L341,285 L299,284 Z M376,248 L363,261 L321,261 L335,249 L376,248 Z M409,223 L388,238 L352,238 L372,226 L409,223 Z M515,204 L562,204 L587,208 L616,217 L665,242 L694,264 L728,299 L747,326 L763,356 L783,409 L790,438 L794,465 L796,499 L795,526 L788,573 L774,619 L749,669 L735,688 L717,708 L694,728 L675,741 L655,752 L629,763 L600,771 L575,775 L526,774 L497,768 L476,761 L434,740 L394,710 L376,692 L352,662 L329,622 L320,602 L309,570 L302,541 L298,513 L297,458 L300,431 L307,397 L322,353 L334,329 L351,302 L368,281 L385,264 L402,250 L429,232 L453,220 L490,208 L515,204 Z M463,198 L428,213 L400,214 L432,202 L458,197 L463,198 Z" id="Shape"></path>
        </g>
    </g>
</svg>