<?xml version="1.0" encoding="UTF-8"?>
<svg width="505px" height="509px" viewBox="0 0 505 509" version="1.1" xmlns="http://www.w3.org/2000/svg" xmlns:xlink="http://www.w3.org/1999/xlink">
    <title>Frame</title>
    <defs>
        <path d="M0,0 L505,0 L505,509 L0,509 L0,0 Z" id="path-1"></path>
    </defs>
    <g id="Frame" stroke="none" fill="none" xlink:href="#path-1" fill-rule="evenodd" stroke-width="1">
        <g id="Group" transform="translate(-262, -248)">
            <path d="M381,568 L385,563 L402,562 L404,564 L403,569 L396,576 L387,574 L381,568 Z M627,564 L609,605 L565,608 L568,594 L574,590 L586,589 L591,581 L591,576 L577,561 L580,557 L598,547 L604,547 L627,564 Z M394,521 L399,528 L391,537 L396,541 L393,548 L399,554 L392,559 L377,558 L371,553 L376,548 L369,543 L374,538 L369,533 L369,529 L377,523 L394,521 Z M406,527 L434,518 L443,535 L460,548 L458,557 L454,561 L410,552 L402,543 L406,527 Z M411,508 L407,515 L359,520 L355,515 L358,509 L408,504 L411,508 Z M641,436 L643,444 L640,448 L629,451 L624,443 L627,439 L641,436 Z M712,414 L713,423 L706,434 L697,437 L677,431 L671,433 L667,441 L668,448 L674,455 L706,465 L716,474 L720,482 L719,501 L708,514 L697,518 L686,518 L665,510 L676,533 L683,539 L697,543 L701,548 L707,583 L705,593 L663,598 L664,585 L669,580 L681,578 L678,566 L671,560 L643,555 L622,545 L611,531 L608,509 L595,528 L569,549 L552,556 L518,562 L510,579 L486,605 L481,619 L432,623 L435,608 L441,603 L455,602 L461,594 L470,572 L474,550 L488,547 L500,534 L510,540 L514,538 L521,523 L526,502 L536,502 L539,497 L536,463 L554,471 L598,465 L619,467 L640,476 L678,499 L697,501 L704,492 L701,480 L664,465 L654,453 L652,437 L657,425 L668,416 L683,414 L701,417 L709,412 L712,414 Z M506,405 L510,411 L500,420 L515,427 L530,446 L528,453 L512,449 L525,462 L529,470 L531,485 L527,487 L509,473 L516,493 L515,511 L509,520 L491,500 L491,528 L486,542 L481,544 L464,531 L454,510 L446,521 L444,519 L442,498 L448,486 L457,478 L461,478 L468,486 L472,465 L490,452 L494,445 L494,435 L491,432 L490,439 L482,448 L470,454 L461,468 L440,482 L433,473 L433,462 L438,457 L455,455 L450,452 L436,452 L434,440 L429,433 L440,423 L440,416 L452,408 L471,404 L486,407 L506,405 Z M525,418 L532,411 L553,403 L570,403 L584,407 L608,427 L615,440 L618,453 L607,456 L552,460 L548,457 L538,432 L525,418 Z M443,394 L452,403 L447,408 L440,404 L443,394 Z M504,393 L487,404 L476,401 L478,396 L487,390 L495,389 L504,393 Z M475,388 L466,402 L460,401 L455,396 L456,392 L470,387 L475,388 Z M646,372 L651,377 L648,384 L617,417 L610,417 L607,410 L641,373 L646,372 Z M494,342 L502,344 L529,394 L526,400 L520,401 L516,397 L490,348 L494,342 Z M599,337 L604,341 L604,347 L588,395 L580,398 L575,393 L592,341 L599,337 Z M467,335 L439,362 L420,389 L401,435 L395,464 L393,496 L388,501 L374,502 L371,498 L371,481 L377,442 L386,415 L398,391 L412,371 L432,351 L449,340 L467,335 Z M540,312 L547,312 L551,321 L556,390 L548,394 L542,389 L537,330 L537,315 L540,312 Z" id="Shape" fill-rule="nonzero"></path>
            <polygon id="Path" fill="#000000" points="401 734 439 749 472 757 437 744 419 732"></polygon>
            <polygon id="Path" fill="#000000" points="403 721 394 714 373 718 381 723"></polygon>
            <polygon id="Path" fill="#000000" points="382 703 374 695 350 700 359 707"></polygon>
            <polygon id="Path" fill="#000000" points="364 684 357 675 330 680 338 688"></polygon>
            <polygon id="Path" fill="#000000" points="347 662 341 653 310 657 319 667"></polygon>
            <polygon id="Path" fill="#000000" points="332 639 326 628 295 633 301 643"></polygon>
            <polygon id="Path" fill="#000000" points="320 614 314 601 282 606 287 618"></polygon>
            <polygon id="Path" fill="#000000" points="306 573 271 578 276 591 310 587"></polygon>
            <polygon id="Path" fill="#000000" points="402 564 385 565 383 568 391 574 396 574 401 569"></polygon>
            <polygon id="Path" fill="#000000" points="625 564 601 548 580 559 581 564 593 576 593 581 586 591 570 594 566 607 609 603"></polygon>
            <polygon id="Path" fill="#000000" points="300 543 265 547 267 562 302 558"></polygon>
            <polygon id="Path" fill="#000000" points="394 523 377 525 371 529 371 533 377 537 371 543 378 548 373 552 379 557 397 555 397 552 391 548 395 543 389 537 396 531 397 526"></polygon>
            <polygon id="Path" fill="#000000" points="407 529 404 543 411 551 448 559 456 557 458 548 442 536 434 520 422 522"></polygon>
            <polygon id="Path" fill="#000000" points="298 513 262 517 263 532 298 528"></polygon>
            <polygon id="Path" fill="#000000" points="409 508 405 505 358 511 357 516 358 518 407 513"></polygon>
            <polygon id="Path" fill="#000000" points="298 482 263 485 262 501 298 497"></polygon>
            <polygon id="Path" fill="#000000" points="302 452 267 454 264 470 300 467"></polygon>
            <polygon id="Path" fill="#000000" points="641 439 629 440 626 445 629 449 640 446"></polygon>
            <polygon id="Path" fill="#000000" points="310 422 275 423 270 439 304 437"></polygon>
            <polygon id="Path" fill="#000000" points="710 414 701 419 684 416 670 417 659 425 654 436 655 451 664 463 673 468 695 474 703 480 706 492 704 497 697 503 685 503 676 500 633 474 619 469 596 467 565 473 554 473 536 465 540 479 540 500 536 504 528 503 516 538 510 542 501 535 486 550 475 552 472 571 463 594 456 603 439 606 435 612 434 622 480 618 484 605 508 579 518 560 545 556 569 547 594 527 610 505 611 526 615 535 622 543 639 552 671 558 681 568 683 578 678 581 669 582 665 586 664 596 705 591 698 546 681 540 674 533 663 509 665 508 681 515 698 516 708 512 718 499 719 486 715 475 700 464 674 457 667 450 665 444 667 435 673 430 683 430 696 435 706 432 711 423"></polygon>
            <path d="M469,406 L452,410 L443,415 L442,423 L431,433 L432,437 L436,440 L437,451 L450,450 L457,455 L453,459 L438,459 L435,462 L434,469 L437,477 L440,480 L461,466 L470,452 L482,446 L487,441 L489,432 L493,431 L496,436 L495,447 L488,456 L474,465 L471,473 L470,487 L468,488 L460,479 L450,486 L444,498 L444,514 L446,519 L454,507 L462,526 L473,537 L484,542 L490,523 L489,499 L491,498 L509,518 L514,508 L514,492 L506,471 L511,472 L529,485 L529,477 L525,465 L509,448 L511,446 L528,451 L528,446 L523,437 L514,428 L498,420 L508,411 L508,408 L486,409 L469,406 Z M447,428 L456,421 L463,421 L468,424 L465,429 L459,432 L447,428 Z" id="Shape" fill="#000000" fill-rule="nonzero"></path>
            <polygon id="Path" fill="#000000" points="527 418 541 434 548 453 552 458 560 459 616 453 614 442 606 427 594 415 584 409 571 405 553 405 542 408"></polygon>
            <polygon id="Path" fill="#000000" points="443 396 442 405 449 405 450 403"></polygon>
            <polygon id="Path" fill="#000000" points="321 392 287 393 280 408 314 407"></polygon>
            <polygon id="Path" fill="#000000" points="502 393 496 391 482 394 478 400 487 402"></polygon>
            <polygon id="Path" fill="#000000" points="474 389 457 393 457 396 464 401"></polygon>
            <polygon id="Path" fill="#000000" points="646 374 641 375 609 410 610 415 615 416 646 384 649 380"></polygon>
            <polygon id="Path" fill="#000000" points="295 378 327 377 335 364 303 364"></polygon>
            <polygon id="Path" fill="#000000" points="492 346 493 351 520 399 526 398 526 391 501 345 498 343"></polygon>
            <polygon id="Path" fill="#000000" points="599 339 593 343 577 392 579 396 585 396 603 344"></polygon>
            <polygon id="Path" fill="#000000" points="464 337 443 345 425 359 410 376 397 396 385 422 377 450 373 480 374 500 391 497 396 448 404 420 418 389 438 361"></polygon>
            <polygon id="Path" fill="#000000" points="313 350 343 350 353 336 324 336"></polygon>
            <polygon id="Path" fill="#000000" points="540 314 539 332 544 390 550 392 554 390 549 319 547 314"></polygon>
            <polygon id="Path" fill="#000000" points="336 322 364 322 375 310 349 310"></polygon>
            <polygon id="Path" fill="#000000" points="400 286 377 287 364 297 388 297"></polygon>
            <path d="M533,252 L489,259 L447,277 L409,305 L378,338 L355,373 L334,422 L324,466 L322,521 L331,575 L349,623 L372,660 L404,695 L433,717 L472,736 L516,747 L562,748 L601,740 L644,722 L682,696 L715,662 L735,632 L755,586 L765,541 L767,493 L762,451 L749,405 L727,359 L701,323 L667,292 L627,269 L583,256 L533,252 Z M535,269 L573,271 L613,281 L644,296 L674,319 L707,358 L729,398 L742,434 L751,483 L749,542 L742,574 L733,597 L412,635 L408,638 L408,643 L413,648 L722,609 L728,610 L721,625 L700,655 L678,678 L658,694 L635,708 L608,720 L584,727 L553,731 L516,730 L476,720 L447,706 L417,684 L390,656 L377,638 L362,611 L347,570 L339,524 L339,482 L349,431 L359,403 L371,379 L392,348 L422,316 L459,290 L490,277 L535,269 Z" id="Shape" fill="#000000" fill-rule="nonzero"></path>
            <polygon id="Path" fill="#000000" points="468 248 429 260 397 274 417 274 433 263"></polygon>
        </g>
    </g>
</svg>